<svg width="343" height="343" viewBox="0 0 343 343" fill="none" xmlns="http://www.w3.org/2000/svg">
<g clip-path="url(#clip0_28_1885)">
<path fill-rule="evenodd" clip-rule="evenodd" d="M296.455 136.308C296.729 136.874 297.775 137.046 298.461 137.166C304.052 138.161 328.285 138.675 330.618 136.668C332.658 134.953 331.526 106.93 329.537 105.798C326.965 104.272 298.907 103.981 296.952 105.541C295.529 106.725 294.637 132.347 296.455 136.308ZM297.381 105.901C298.941 104.598 326.347 105.576 328.817 106.776C330.137 110.309 330.995 132.501 329.709 135.657C327.616 137.097 301.977 137.046 297.501 135.657C295.752 131.455 296.403 106.725 297.381 105.901ZM228.249 102.9C227.569 104.064 226.651 105.07 225.554 105.853C224.458 106.637 223.208 107.179 221.887 107.445C221.846 107.434 221.804 107.434 221.763 107.442C221.722 107.451 221.683 107.468 221.65 107.494C221.617 107.52 221.59 107.552 221.572 107.59C221.554 107.628 221.544 107.669 221.544 107.711C221.544 107.753 221.554 107.794 221.572 107.831C221.59 107.869 221.617 107.902 221.65 107.927C221.683 107.953 221.722 107.971 221.763 107.979C221.804 107.988 221.846 107.987 221.887 107.977C224.905 108.765 228.832 106.021 228.832 103.003C228.846 102.926 228.828 102.846 228.783 102.782C228.738 102.717 228.669 102.674 228.592 102.66C228.515 102.646 228.435 102.664 228.371 102.709C228.307 102.754 228.263 102.823 228.249 102.9ZM214.238 87.5509V89.2659C214.238 89.4933 214.328 89.7114 214.489 89.8722C214.65 90.033 214.868 90.1234 215.095 90.1234C215.321 90.119 215.537 90.0272 215.697 89.8673C215.856 89.7075 215.948 89.4919 215.953 89.2659V87.5509C215.953 87.3234 215.862 87.1053 215.701 86.9445C215.541 86.7837 215.323 86.6934 215.095 86.6934C214.868 86.6934 214.65 86.7837 214.489 86.9445C214.328 87.1053 214.238 87.3234 214.238 87.5509ZM231.336 89.1801C231.336 89.4075 231.427 89.6256 231.587 89.7865C231.748 89.9473 231.966 90.0376 232.194 90.0376C232.421 90.0376 232.639 89.9473 232.8 89.7865C232.961 89.6256 233.051 89.4075 233.051 89.1801V87.0535C233.051 86.8261 232.961 86.608 232.8 86.4472C232.639 86.2864 232.421 86.196 232.194 86.196C231.966 86.196 231.748 86.2864 231.587 86.4472C231.427 86.608 231.336 86.8261 231.336 87.0535C231.268 87.791 231.336 88.6485 231.336 89.1801Z" fill="#0E3A99"/>
<path fill-rule="evenodd" clip-rule="evenodd" d="M330.772 213.243C330.659 213.052 330.5 212.893 330.309 212.78C328.834 212.06 320.808 212.42 319.144 212.489C319.436 167.504 295.734 139.447 261.332 131.403C255.02 129.928 255.003 129.826 254.832 129.928L253.665 126.721C256.958 126.618 259.651 124.08 262.669 124.595C264.95 124.972 266.099 126.996 268.346 127.853C272.153 129.294 278.927 127.082 281.003 123.463C282.066 121.576 281.123 119.621 281.791 118.318C282.992 117.272 286.405 115.591 287.382 114.373C289.389 111.869 289.475 106.261 288.566 103.226C286.925 99.7909 284.69 96.673 281.963 94.0163C278.997 91.1583 276.367 87.9706 274.125 84.5152C271.364 79.0101 271.261 71.3955 268.98 65.6502C266.466 60.4628 262.574 56.0665 257.73 52.9421C252.998 49.6 247.294 47.9176 241.506 48.1572C236.104 48.5002 233.994 50.7983 231.473 51.5872C228.952 52.3761 228.421 51.5872 224.322 53.388C222.694 54.3796 221.245 55.6376 220.034 57.1095C219.52 57.6583 219.554 57.6926 218.679 57.7269C217.738 57.6561 216.792 57.6561 215.85 57.7269C214.244 58.0833 212.708 58.7034 211.305 59.562C201.752 65.2901 204.325 76.8149 200.723 85.287C198.271 91.0494 191.445 96.5888 190.862 102.608C190.656 105.376 191.251 108.145 192.577 110.583C196.745 117.906 202.73 112.161 205.834 116.637C206.812 118.043 207.549 119.415 209.367 119.69C211.682 119.999 214.838 118.164 216.724 116.809C217.121 117.271 217.57 117.685 218.062 118.043C219.734 119.171 221.529 120.103 223.413 120.822L219.057 126.91C210.893 125.984 198.357 128.625 190.279 131.112C189.988 129.054 187.449 112.058 185.529 111.235C182.87 110.069 154.967 113.31 153.269 115.145C152.017 116.483 154.264 141.951 156.699 145.758C157.06 146.341 158.294 146.358 158.98 146.375C154.967 149.119 151.091 151.898 149.702 152.909C148.622 149.171 142.945 129.397 140.853 126.155C140.252 125.212 139.704 125.229 136.943 126.155C135.369 118.303 133.376 110.54 130.974 102.9C131.875 101.419 132.595 99.836 133.118 98.1838C133.757 95.5669 133.851 92.8464 133.393 90.1919C135.485 90.895 147.987 94.325 150.011 93.3303C150.554 92.9425 150.958 92.3889 151.16 91.7525C153.372 86.9162 157.162 70.4008 157.454 65.17C157.574 64.5003 157.459 63.8095 157.128 63.2149C155.122 61.1226 128.127 53.3537 125.846 54.3827C124.457 55.0172 120.702 67.3481 120.307 68.8058C117.031 79.799 118.695 77.3808 116.877 78.0154C114.785 78.7528 112.984 83.1604 112.247 85.2012C111.509 87.2421 110.737 89.9861 111.612 91.5982C111.257 92.2538 111.114 93.0036 111.203 93.7439C111.292 94.4842 111.609 95.1787 112.109 95.7313C111.564 96.3393 111.208 97.0935 111.087 97.9011C110.965 98.7087 111.082 99.5343 111.423 100.276C111.921 101.837 115.025 102.866 116.568 103.312C115.35 106.596 114.336 109.952 113.533 113.362C112.165 118.652 111.071 124.01 110.257 129.414C109.75 132.04 109.583 134.72 109.76 137.389L106.947 138.658C106.839 138.707 106.747 138.787 106.684 138.888C106.62 138.988 106.586 139.105 106.587 139.224C106.587 139.224 107.119 160.01 113.962 177.28C122.228 198.185 135.828 205.183 156.528 197.362C156.714 199.003 157.118 200.612 157.728 202.147C158.037 202.696 159.083 202.799 159.786 202.867C165.875 203.067 171.97 202.878 178.034 202.301L183.179 234.886C181.79 238.9 166.029 284.621 166.252 288.875C166.252 289.321 166.423 289.664 167.161 290.007C171.706 292.116 214.769 297.741 216.399 293.042C216.81 291.893 217.805 284.57 217.993 283.181L242.226 280.505L265.327 282.032C265.576 284.345 265.989 286.637 266.562 288.892C266.768 289.406 267.008 289.681 267.608 289.629C269.889 289.406 282.049 287.211 285.41 286.577C298.307 284.141 298.015 283.935 297.638 282.666C296.729 279.665 288.291 256.255 284.998 245.331C289.815 245.845 294.673 245.845 299.49 245.331C299.542 245.516 299.64 245.686 299.775 245.824C299.91 245.962 300.078 246.064 300.262 246.12C303.4 247.269 331.441 245.674 333.739 243.376C335.814 241.541 332.333 215.85 330.772 213.243ZM125.881 55.1201C126.069 54.8286 126.001 54.7085 127.51 54.9315C133.804 55.8233 154.384 62.4603 156.168 64.021C156.511 67.9483 151.417 89.5059 149.411 92.1127C147.953 92.61 138.28 90.1404 136.788 89.746C125.435 86.779 125.881 86.316 123.291 85.7157C121.953 85.2527 121.816 85.2355 121.851 85.0469C121.855 85.0044 121.875 84.9651 121.906 84.9366C121.938 84.908 121.979 84.8923 122.022 84.8925C123.566 84.8925 127.699 84.7725 128.711 83.572C128.934 83.3279 129.101 83.0374 129.199 82.7214C129.297 82.4054 129.324 82.0716 129.278 81.7439C129.232 81.4162 129.114 81.1027 128.933 80.8258C128.752 80.5489 128.512 80.3154 128.23 80.142C126.026 79.2589 123.723 78.6484 121.37 78.3241C120.667 78.1869 119.81 77.9468 118.952 77.8439C120.136 72.4931 124.046 57.967 125.881 55.1201ZM111.149 136.823V134.164C111.303 130.906 112.864 122.348 113.327 119.999C114.082 116.191 114.253 115.334 116.448 107.067C116.448 106.845 117.769 103.157 117.769 103.157C117.793 103.093 117.802 103.025 117.797 102.957C117.793 102.889 117.773 102.822 117.741 102.762C117.708 102.702 117.664 102.65 117.609 102.609C117.555 102.567 117.492 102.538 117.426 102.523C117.237 102.523 112.778 101.425 112.281 100.002C111.784 98.5782 111.681 96.8632 112.933 96.1086C112.979 96.0752 113.016 96.0314 113.042 95.9807C113.068 95.9301 113.081 95.874 113.081 95.8171C113.081 95.7602 113.068 95.7041 113.042 95.6534C113.016 95.6028 112.979 95.5589 112.933 95.5255C112.384 95.0756 112.016 94.4442 111.893 93.7458C111.77 93.0473 111.902 92.3281 112.264 91.7182C112.658 90.9122 110.549 91.3066 113.053 85.5271C113.687 84.1036 115.831 79.7304 117.289 79.2502C118.579 79.1242 119.882 79.2703 121.113 79.6789C123.263 80.0175 125.376 80.5572 127.424 81.291C127.555 81.361 127.667 81.4602 127.753 81.5808C127.838 81.7013 127.895 81.8401 127.918 81.9862C127.941 82.1322 127.931 82.2817 127.887 82.4229C127.843 82.5641 127.767 82.6932 127.664 82.8002C126.911 83.2272 126.086 83.5121 125.229 83.6406C119.827 84.7039 120.787 83.5205 120.084 85.3556C118.02 85.2345 115.957 85.6048 114.064 86.436C113.327 86.5904 113.636 87.0706 114.167 86.9848C116.465 86.2318 118.923 86.1075 121.285 86.6247C122.655 86.8751 123.995 87.2718 125.281 87.808C126.447 88.2817 127.482 89.0287 128.299 89.9861C128.445 90.3489 128.499 90.742 128.457 91.1308C128.416 91.5196 128.279 91.8922 128.059 92.2156C127.647 92.8501 125.658 92.4214 124.903 92.2156C123.874 91.9069 122.794 91.6496 121.782 91.3238C120.359 90.8779 120.513 90.7578 120.067 90.7921C118.494 91.015 116.955 91.4356 115.488 92.0441C115.446 92.0488 115.407 92.063 115.371 92.0855C115.336 92.108 115.306 92.1383 115.285 92.1739C115.263 92.2096 115.25 92.2498 115.246 92.2914C115.242 92.333 115.248 92.375 115.263 92.414C115.277 92.4531 115.301 92.4883 115.331 92.5168C115.362 92.5454 115.398 92.5667 115.438 92.579C115.478 92.5913 115.521 92.5943 115.562 92.5878C115.603 92.5813 115.642 92.5654 115.677 92.5414C116.99 92.1711 118.333 91.9129 119.69 91.7697C120.461 91.7697 119.964 91.7697 121.902 92.5414C122.777 92.8673 123.617 93.1245 124.543 93.4332C125.139 93.6374 125.754 93.781 126.378 93.862C127.476 94.891 128.265 97.292 126.79 97.7207C126.21 97.8207 125.614 97.7491 125.075 97.5149C121.147 96.2287 123.806 95.3026 115.282 97.0519C115.212 97.0605 115.149 97.0955 115.104 97.1498C115.059 97.204 115.037 97.2733 115.042 97.3434C115.042 97.7893 115.334 97.5149 120.05 97.3434C120.62 97.2861 121.195 97.2861 121.765 97.3434C123.24 98.098 125.435 99.3843 127.133 98.8869C129.208 98.2181 129.139 95.92 127.802 94.2393C127.321 93.6562 127.27 93.8277 127.682 93.7591C127.983 93.7264 128.273 93.6319 128.536 93.4813C128.799 93.3308 129.028 93.1276 129.208 92.8844C129.614 92.3242 129.841 91.6542 129.86 90.9624C129.878 90.2707 129.687 89.5896 129.311 89.0085L132.192 89.866C132.762 92.5223 132.715 95.2741 132.055 97.9094C131.871 98.5527 131.63 99.1784 131.335 99.7787C130.083 102.42 129.62 102.506 129.774 103.003C132.157 110.752 134.121 118.624 135.656 126.584C129.191 128.848 117.34 134.062 111.149 136.823ZM246.857 255.998C254.197 256.307 269.975 256.873 277.212 256.65C276.715 258.811 276.406 260.183 276.321 260.491C272.873 260.491 250.596 256.633 246.857 255.998ZM279.991 255.123C275.395 256.204 215.73 253.871 210.619 251.693C211.151 247.852 216.158 226.26 217.17 221.852C221.672 223.23 226.354 223.924 231.062 223.91C232.777 224.802 235.606 226.346 237.304 227.152C237.116 228.61 236.653 232.057 237.682 233.086C238.711 234.115 262.395 242.81 283.163 245.245C282.326 248.604 281.266 251.904 279.991 255.123ZM216.621 213.843C215.832 213.604 215.101 213.2 214.478 212.66C214.032 212.18 214.186 210.722 214.478 210.036C214.637 209.703 214.92 209.444 215.267 209.316C215.685 209.134 216.132 209.024 216.587 208.99C216.723 208.987 216.855 208.942 216.965 208.862C217.076 208.782 217.159 208.67 217.203 208.541C217.248 208.412 217.252 208.273 217.216 208.142C217.179 208.011 217.104 207.894 216.999 207.807C215.996 206.961 215.297 205.811 215.009 204.531C215.009 203.588 215.37 202.61 216.879 201.753C218.594 201.89 223.739 206.143 226.123 203.691C228.506 201.238 225.694 195.493 228.352 195.013C231.01 194.532 232.348 202.524 232.811 203.399C234.355 206.4 238.505 208.544 240.872 211.014C239.442 216.126 238.297 221.313 237.442 226.552C234.012 224.716 231.473 223.122 231.216 223.122C227.632 223.001 218.011 222.007 215.507 219.451C215.061 219.107 214.757 218.613 214.649 218.061C214.542 217.508 214.64 216.936 214.924 216.45C215.106 216.128 215.352 215.846 215.647 215.622C215.942 215.398 216.279 215.236 216.639 215.147C216.786 215.111 216.916 215.026 217.009 214.907C217.101 214.787 217.151 214.64 217.149 214.488C217.147 214.337 217.093 214.191 216.998 214.074C216.902 213.957 216.769 213.875 216.621 213.843ZM235.727 156.734C232.54 156.429 229.34 156.303 226.14 156.357C225.728 156.357 225.385 156.562 225.265 156.957C224.974 158.054 220.12 193.726 219.88 195.476C218.851 178.326 217.788 160.267 216.999 147.027C222.967 156.545 223.481 157.488 224.425 156.82C227.605 154.204 230.612 151.386 233.428 148.382C233.943 150.285 234.766 153.39 235.727 156.734ZM251.419 150.714C250.253 148.999 249.104 147.284 248.675 146.65L254.214 132.707L251.419 150.714ZM255.415 131.026C261.901 132.364 268.226 134.393 274.28 137.08C274.022 137.886 270.713 148.005 266.751 160.078C264.933 159.855 254.523 158.586 251.316 158.243L255.415 131.026ZM248.4 148.553L251.11 152.635L250.253 158.123L247.594 157.78C247.989 154.058 248.263 150.526 248.4 148.553ZM295.752 166.647C295.73 168.879 295.512 171.106 295.1 173.301C289.217 171.792 237.905 159.169 232.691 162.136C230.084 163.645 221.509 198.837 220.686 202.01L220.069 201.701C222.778 182.648 226.38 157.66 226.38 157.591C232.228 156.923 288.566 163.302 295.752 166.647ZM265.825 202.507C261.983 202.25 246.737 201.495 243.53 203.622C243.032 203.965 242.827 204.034 241.06 210.379C238.779 207.961 234.955 205.68 233.669 202.987C233.085 201.804 232.142 193.16 228.146 193.829C222.761 194.738 229.638 205.834 221.681 202.404C222.195 200.226 230.633 163.903 232.983 162.565C237.956 159.735 292.202 173.541 299.062 175.479C298.667 179.663 293.625 201.993 292.699 206.074C283.817 204.368 274.844 203.177 265.825 202.507ZM239.414 82.543C240.374 83.1947 240.34 84.7553 240.168 85.8872C238.968 93.5533 231.285 98.2009 225.951 90.8607C224.733 89.1457 223.79 83.692 224.613 82.4915C225.162 81.7884 229.587 81.7541 230.479 81.7541C232.125 81.7712 238.556 82.0285 239.345 82.543H239.414ZM218.988 83.7778C218.988 87.002 217.908 92.3528 215.044 93.8963C210.43 96.2973 205.748 92.49 205.628 87.5336C205.452 85.7242 205.539 83.8989 205.886 82.1142L206.057 82.0285C205.783 81.5483 217.839 81.3939 218.92 82.4744C218.956 82.9081 218.956 83.3441 218.92 83.7778H218.988ZM224.956 121.113C227.923 121.971 232.708 121.559 235.006 119.21C235.055 119.159 235.081 119.091 235.081 119.021C235.081 118.951 235.055 118.883 235.006 118.832C234.612 118.352 235.006 119.278 230.547 119.947C226.088 120.616 223.396 119.947 218.885 117.014C216.812 115.11 215.259 112.707 214.375 110.034C212.528 105.511 211.372 100.736 210.945 95.8685C212.559 96.1328 214.215 95.8618 215.661 95.0968C217.065 94.2761 218.152 93.0078 218.748 91.4953C218.169 93.3076 217.694 95.1514 217.325 97.0176C217.244 97.2565 217.232 97.5131 217.29 97.7585C217.347 98.0039 217.472 98.2284 217.65 98.4067C218.836 99.1315 220.233 99.4338 221.612 99.2642C221.653 99.2746 221.695 99.2756 221.736 99.2671C221.777 99.2586 221.815 99.2408 221.848 99.2152C221.881 99.1895 221.908 99.1567 221.927 99.1191C221.945 99.0815 221.955 99.0402 221.955 98.9984C221.955 98.9566 221.945 98.9153 221.927 98.8777C221.908 98.8402 221.881 98.8073 221.848 98.7817C221.815 98.756 221.777 98.7382 221.736 98.7297C221.695 98.7212 221.653 98.7222 221.612 98.7326C220.595 98.6193 219.613 98.292 218.731 97.7722C218.336 97.4978 218.508 97.6693 218.628 97.1033C218.748 96.5374 220.978 88.3568 221.098 87.8423C221.629 87.8423 223.653 87.5679 223.653 87.0706C223.653 86.5732 222.041 86.436 221.441 86.4703C221.441 86.2474 221.544 86.0587 221.595 85.8872C221.622 85.819 221.621 85.7427 221.592 85.6752C221.563 85.6077 221.509 85.5544 221.441 85.5271C221.372 85.4998 221.296 85.5007 221.229 85.5297C221.161 85.5586 221.108 85.6132 221.08 85.6814C220.48 86.8476 220.892 86.4189 220.086 86.6247C220.395 85.039 220.395 83.4084 220.086 81.8227C219.108 80.3135 213.226 80.6565 211.305 80.7765C212.283 75.0313 216.09 72.2015 218.422 67.6053C219.076 66.5385 219.946 65.6211 220.978 64.9128C221.492 64.7756 222.504 66.0618 223.121 66.3705C223.739 66.6792 224.322 68.3771 224.836 68.9602C226.454 70.8022 228.318 72.4123 230.376 73.745C232.091 74.9627 234.766 75.1513 235.932 76.712C236.425 78.0391 236.664 79.447 236.636 80.8623C234.423 80.7251 225.196 80.5879 224.099 82.1657C223.104 83.4348 223.533 89.2315 224.991 91.461C228.661 97.0176 234.303 97.3606 238.711 92.3528C239.185 91.7617 239.587 91.117 239.911 90.432C243.204 95.577 245.794 98.6468 245.914 104.684C246.051 112.333 243.89 125.006 252.173 126.601L253.597 130.529C246.737 147.782 247.097 146.701 247.097 146.873C247.097 147.044 246.771 152.018 246.171 157.711C242.878 157.368 239.808 157.077 237.081 156.854C236.876 156.151 234.32 147.061 234.372 146.873C234.629 146.015 233.343 144.334 232.348 142.842C228.618 137.442 224.545 132.286 220.154 127.407L224.956 121.113ZM218.92 127.87C219.211 128.316 231.559 141.899 233.068 146.89C230.294 149.965 227.296 152.831 224.099 155.465C222.95 153.956 219.846 148.982 216.896 144.334C216.364 135.365 216.004 129.122 215.918 127.819C216.879 127.75 217.959 127.802 218.851 127.87H218.92ZM157.677 145.02C155.722 141.59 153.012 119.295 153.647 115.865C153.647 115.557 153.647 115.454 155.087 115.059C161.227 113.464 182.767 111.629 185.031 112.401C186.746 115.745 190.502 137.577 189.61 140.939C187.861 142.345 162.719 145.895 157.608 145.02H157.677ZM158.877 201.444C156.905 197.568 155.447 172.718 156.425 171.774C157.883 170.368 185.254 169.168 187.844 170.179C189.559 173.781 191.994 195.904 190.982 198.906C188.65 200.655 162.925 202.37 158.809 201.444H158.877ZM198.031 172.701C199.266 172.375 207.875 170.179 208.904 169.562C209.641 169.133 210.482 170.522 196.059 130.94C197.774 129.362 212.763 127.339 215.129 128.076C215.129 129.019 217.376 169.048 219.143 201.17C218.302 200.758 217.085 200.123 216.313 200.552C213.089 202.267 212.883 205.114 215.267 207.892C214.821 208.001 214.408 208.213 214.059 208.511C213.711 208.809 213.437 209.185 213.26 209.607C212.985 210.251 212.868 210.951 212.919 211.649C212.97 212.347 213.187 213.023 213.552 213.62C213.952 214.003 214.409 214.321 214.906 214.564C214.394 214.907 213.99 215.389 213.74 215.953C213.515 216.439 213.382 216.962 213.346 217.496L198.031 172.701ZM240.717 279.425L218.319 281.912C218.422 281.089 220.943 261.212 221.749 254.472C226.414 254.883 232.039 255.243 238.059 255.569C239.054 267.934 240.803 276.475 240.649 279.425H240.717ZM241.901 279.288C242.141 275.378 238.916 255.775 238.899 255.604L240.614 255.689C246.445 256.77 261.469 259.428 263.098 259.702C263.647 265.225 265.019 278.087 265.345 280.728C239.774 279.082 242.535 279.219 241.815 279.288H241.901ZM332.898 242.587C331.183 243.959 305.99 246.257 300.794 245.125C298.787 241.232 297.364 216.399 298.341 215.455C299.816 214.032 327.188 212.866 329.743 213.861C331.355 217.445 333.842 239.654 332.83 242.587H332.898Z" fill="#0E3A99"/>
<path fill-rule="evenodd" clip-rule="evenodd" d="M150.405 226.644C150.268 226.026 150.079 225.135 149.582 224.929C147.867 223.9 136.565 223.694 134.558 223.66C134.112 215.479 133.323 206.03 132.037 203.491C131.197 201.776 75.7679 201.605 73.8643 201.588C74.0015 192.361 74.0186 178.298 73.8643 169.003C76.2824 169.003 88.356 169.003 90.0196 167.631C92.1462 165.916 90.7227 143.02 89.7623 138.476C89.6251 137.858 89.4193 136.966 88.9391 136.761C86.4352 135.269 58.3435 134.908 56.3541 136.503C55.308 137.378 54.9135 148.097 54.8621 149.452C50.9347 149.452 26.6503 148.954 17.9724 149.16V135.149C20.2191 135.149 33.4074 135.509 35.1224 134.068C37.1976 132.353 36.5116 104.33 34.5393 103.198C32.5671 102.066 20.2534 101.706 18.1268 101.655C18.1268 99.2193 17.9381 93.0796 17.921 92.9253C25.8614 92.6337 46.7844 93.3025 55.4109 93.3025C55.4109 95.9951 55.2565 105.582 56.3884 108.034C56.6628 108.618 57.709 108.789 58.395 108.909C63.8487 109.869 88.1674 110.435 90.5512 108.412C92.9351 106.388 91.2715 80.7487 89.8824 77.9876C89.7904 77.7891 89.6486 77.6178 89.4708 77.4903C86.8811 75.9639 58.8237 75.7752 56.8858 77.233C55.771 78.1763 55.3937 90.4556 55.3594 91.9305C46.5958 91.9305 25.9815 91.2617 17.8181 91.5533C17.8181 88.2433 17.6466 84.899 17.6466 81.6062C20.0819 81.6062 34.7966 81.3833 36.6316 79.7712C38.4667 78.1591 36.6316 52.1768 35.1567 49.3642C35.065 49.1649 34.9157 48.9977 34.728 48.884C32.1212 47.4263 4.06378 47.8722 2.14298 49.4843C0.685229 50.7534 0.427978 76.3926 2.38308 80.3543C2.51777 80.5755 2.72325 80.7447 2.96618 80.8345C4.92128 81.6577 14.0451 81.6749 16.1888 81.6749C16.1888 89.3409 16.5318 95.5664 16.6004 101.689C14.8854 101.689 3.18913 101.432 1.88573 102.478C0.582329 103.524 -0.995471 129.146 0.822429 133.348C1.07968 133.914 2.12583 134.12 2.81183 134.24C7.35699 134.896 11.9399 135.257 16.5318 135.32V160.633C14.9026 160.633 3.73793 160.428 2.48598 161.44C1.23403 162.451 -0.412371 188.108 1.40553 192.31C1.66278 192.893 2.70893 193.081 3.39493 193.218C8.95153 194.282 33.1673 195.208 35.5512 193.218C37.935 191.229 36.7002 165.521 35.3968 162.794C35.3041 162.592 35.1627 162.415 34.9852 162.28C33.1159 161.148 20.1162 160.771 17.8352 160.719V150.806C26.7189 150.584 50.0086 151.081 54.7077 151.098C54.7077 153.996 54.4333 164.921 55.6681 167.579C55.7802 167.809 55.9768 167.988 56.2169 168.077C58.4293 169.088 69.9369 169.294 72.2865 169.311C72.5094 178.641 72.4923 192.738 72.2865 201.896C49.2369 201.776 25.3298 202.016 20.5106 202.994C19.9961 203.097 19.1558 203.268 19.1215 203.989C19.1215 203.989 18.1954 218.806 17.7666 223.9C16.2403 223.9 6.20753 223.9 5.04133 224.929C3.87513 225.958 2.58888 251.649 4.47538 255.799C4.73263 256.365 5.77878 256.553 6.46478 256.673C11.9356 257.634 36.2372 258.2 38.621 256.176C41.0049 254.152 39.3242 228.462 37.9522 225.752C38.021 225.588 38.043 225.408 38.0158 225.233C37.9885 225.057 37.9131 224.893 37.7978 224.757C35.8256 223.574 21.7454 223.471 19.413 223.454C19.8246 218.309 20.7164 203.989 20.7164 203.989C26.5817 202.274 124.148 202.479 130.974 204.212C132.02 206.716 132.689 215.308 133.238 223.523C131.523 223.523 118.489 223.42 117.134 224.552C115.779 225.683 114.75 251.426 116.568 255.422C116.688 255.652 116.89 255.829 117.134 255.919C120.169 257.291 148.244 257.908 150.713 255.799C151.138 255.285 151.385 254.647 151.417 253.981C152.223 248.767 151.519 231.789 150.405 226.644ZM57.2459 77.4388C58.7723 76.1697 86.1437 77.0787 88.6819 78.3135C89.3188 81.0203 89.6865 83.7834 89.7795 86.5626C78.7863 85.4478 63.9344 86.3053 56.3541 86.5626C56.3884 85.5336 56.6628 77.8504 57.2459 77.3874V77.4388ZM56.337 87.5059C68.8222 87.9003 83.6398 87.2486 89.8309 87.3172C90.0196 90.3528 90.6884 104.57 89.5737 107.194C88.3046 108.069 78.3061 108.223 76.7798 108.24C73.0925 108.24 60.9332 108.24 57.366 107.211C56.1312 104.21 56.2512 90.8844 56.337 87.4544V87.5059ZM2.58888 49.6215C4.11523 48.2838 31.5381 48.541 34.042 49.6215C34.6047 51.5331 34.9612 53.4994 35.1053 55.4868C24.0268 55.1601 12.94 55.7337 1.95433 57.2018C1.97148 56.5844 2.09153 50.0674 2.58888 49.6215ZM3.49783 79.3768C2.10868 76.2726 1.92003 61.8323 1.95433 57.7849C3.39493 57.6134 34.5393 56.0699 35.1739 56.0699C35.5512 59.4999 36.8889 75.5009 35.6884 78.5021C33.3903 80.1657 7.57953 80.4915 3.49783 79.3768ZM2.31448 102.581C3.87513 101.329 31.2294 102.684 33.7504 103.953C34.3114 106.512 34.6215 109.12 34.6765 111.739C34.848 111.739 10.4264 110.778 1.31978 111.07C1.37123 110.058 1.78283 102.992 2.31448 102.581ZM34.6422 191.761C32.7557 192.996 7.45948 192.841 2.45168 191.246C1.21688 188.176 1.59418 174.096 1.76568 170.512C1.93718 170.512 25.3812 172.33 35.191 171.181C35.3625 174.319 35.8256 189.085 34.6422 191.744V191.761ZM34.2306 162.846C34.789 165.412 35.1048 168.024 35.1739 170.649C35.3454 170.649 10.9752 169.689 1.79998 169.963C1.87641 167.206 2.16886 164.459 2.67463 161.748C2.79468 161.405 2.67463 161.337 4.21813 161.165C10.3578 160.479 32.0354 161.731 34.2306 162.829V162.846ZM1.95433 132.336C0.736679 129.266 1.11398 115.289 1.28548 111.619C1.49128 111.619 24.8667 113.437 34.7108 112.288C34.8823 115.443 35.3625 130.124 34.162 132.868C31.8468 134.377 6.08748 133.656 1.95433 132.336ZM38.1751 234.636C38.3809 237.826 39.0326 252.009 37.9179 254.701C36.1 255.97 10.7008 256.228 5.71018 254.701C4.47538 251.717 4.59543 238.289 4.68118 234.704C15.7429 235.133 25.7928 234.636 38.1751 234.636ZM37.0261 225.821C37.6605 228.523 38.0338 231.279 38.1408 234.053C27.2334 232.955 11.867 233.83 4.69833 234.155C4.69833 233.075 5.02418 225.409 5.59013 224.946C7.13363 223.677 34.4879 224.586 37.0261 225.821ZM56.6628 136.726C58.2406 135.406 85.612 136.4 88.0988 137.601C88.7511 140.416 89.1301 143.288 89.2307 146.176C81.7876 145.782 63.2656 144.598 55.7882 145.524C55.8739 144.547 56.1655 137.189 56.6628 136.726ZM56.8343 166.447C55.5824 163.446 55.7196 149.726 55.8225 146.142C58.2406 145.902 75.7336 146.999 83.8627 146.931C85.9379 146.931 87.8072 146.845 89.3164 146.793C89.5051 149.846 90.1396 163.789 89.042 166.43C86.7954 168.025 61.0018 167.768 56.8343 166.447ZM117.425 224.946C118.969 223.677 146.323 224.586 148.878 225.821C149.507 228.529 149.875 231.291 149.976 234.07C139.171 232.972 123.531 233.847 116.551 234.07C116.568 233.161 116.859 225.46 117.425 224.997V224.946ZM149.77 254.701C147.901 255.97 122.502 256.228 117.562 254.701C116.311 251.734 116.431 238.254 116.533 234.687C128.075 235.133 136.736 234.687 150.01 234.687C150.216 237.843 150.868 252.077 149.77 254.753V254.701Z" fill="#0E3A99"/>
</g>
<defs>
<clipPath id="clip0_28_1885">
<rect width="343" height="343" fill="white"/>
</clipPath>
</defs>
</svg>
